<?xml version="1.0" encoding="utf-8"?>
<svg viewBox="128.228 83.046 159.208 143.718" xmlns="http://www.w3.org/2000/svg">
  <ellipse style="fill: rgb(65, 69, 143); stroke: rgb(108, 154, 33);" cx="207.616" cy="153.017" rx="73.795" ry="67.771"/>
  <path fill="rgb(255,0,0)" stroke-width="0" d="M 281.878 161.013 C 282.59 162.132 282.713 164.629 282.308 165.962 C 281.949 167.142 281.25 167.857 279.941 168.759 C 277.968 170.119 273.889 172.73 270.475 172.631 C 266.641 172.52 261.987 168.172 257.997 167.037 C 254.419 166.02 251.465 165.684 247.67 165.747 C 243.327 165.818 234.958 167.11 233.255 167.898 C 232.654 168.176 232.998 168.511 232.609 168.759 C 232.013 169.138 230.605 169.733 229.597 169.619 C 228.525 169.499 227.012 168.941 226.37 167.898 C 226.185 167.597 226.04 167.189 225.933 166.722 C 225.724 166.845 225.508 166.95 225.294 167.037 C 224.237 167.468 223.17 168.054 221.422 167.037 C 217.526 164.772 207.163 149.432 202.919 145.093 C 200.502 142.622 198.331 142.154 197.54 140.574 C 197.161 139.814 197.084 138.934 197.18 138.123 C 197.122 138.06 197.049 137.967 196.895 137.778 C 195.788 136.412 190.566 130.434 189.365 127.235 C 188.431 124.75 188.535 121.852 188.935 120.351 C 189.199 119.358 189.651 119.261 190.441 118.414 C 191.741 117.022 195.084 114.247 196.68 112.605 C 197.89 111.36 197.527 110.819 199.477 109.378 C 203.864 106.136 223.658 98.146 228.091 94.103 C 230.358 92.036 229.809 89.707 230.888 88.724 C 231.671 88.011 232.46 87.822 233.47 87.864 C 234.641 87.913 236.789 88.399 237.766 89.337 C 241.008 89.976 247.093 92.096 249.176 93.457 C 250.634 94.411 250.37 95.478 251.542 96.469 C 253.094 97.782 257.004 99.248 258.212 100.342 C 258.919 100.984 258.965 101.65 259.287 102.063 C 259.522 102.363 259.497 102.343 259.933 102.709 C 261.054 103.649 266.014 106.764 267.678 108.518 C 268.853 109.756 269.09 111.196 269.83 111.96 C 270.39 112.539 271.111 112.614 271.551 113.036 C 271.946 113.415 271.942 113.476 272.411 114.327 C 273.627 116.529 277.869 124.071 279.726 129.387 C 281.623 134.815 283.017 141.612 283.599 146.599 C 284.076 150.69 284.264 155.192 283.599 157.356 C 283.197 158.664 282.262 159.168 281.663 159.723 C 281.472 159.899 281.289 160.039 281.109 160.159 C 281.416 160.409 281.678 160.7 281.878 161.013 Z M 197.756 169.189 C 201.076 168.538 201.643 169.489 204.64 170.48 C 209.273 172.011 219.366 177.881 223.573 179.086 C 225.986 179.777 226.879 179.923 228.737 179.516 C 230.977 179.025 233.273 176.317 236.052 175.643 C 239.088 174.907 243.418 174.988 246.379 175.643 C 248.971 176.217 251.942 177.355 253.048 178.871 C 253.48 179.463 253.661 180.278 253.703 181.098 C 254.274 181.535 254.788 181.952 255.2 182.313 C 256.727 183.65 257.542 185.532 258.427 186.401 C 259.012 186.975 259.565 186.585 259.933 187.476 C 260.763 189.49 260.914 199.234 260.363 201.676 C 260.269 202.093 260.167 202.399 260.044 202.641 C 260.012 202.935 259.975 203.19 259.933 203.397 C 259.71 204.492 259.589 204.572 258.642 205.334 C 256.731 206.87 248.099 210.244 246.594 211.358 C 246.046 211.763 246.592 211.799 245.948 212.218 C 243.729 213.662 231.049 219.49 224.003 221.254 C 217.614 222.854 212.385 223.288 205.501 222.976 C 197.446 222.61 184.978 220.769 178.392 218.242 C 173.557 216.387 169.688 212.771 167.85 211.142 C 166.899 210.299 166.918 209.78 166.344 209.206 C 165.954 208.815 165.451 208.78 164.998 208.442 C 164.184 208.716 163.22 208.873 162.472 208.776 C 161.331 208.629 159.979 208.383 159.244 207.055 C 158.034 204.868 157.694 197.261 158.384 194.361 C 158.857 192.373 159.814 191.746 161.181 190.273 C 162.996 188.316 165.015 186.321 168.926 183.819 C 175.159 179.832 191.633 170.39 197.756 169.189 Z M 169.356 104.645 C 170.969 104.687 173.029 105.204 173.874 106.366 C 174.785 107.619 174.989 109.98 174.305 112.175 C 173.363 115.198 169.728 120.422 166.775 122.717 C 164.177 124.735 160.693 123.7 157.954 125.945 C 154.475 128.794 150.505 136.297 148.487 140.144 C 147.046 142.891 146.34 144.618 145.905 147.029 C 145.461 149.49 145.779 152.036 145.905 154.774 C 146.043 157.746 147.406 161.881 146.766 164.241 C 146.263 166.095 145.072 167.487 143.539 168.328 C 141.819 169.271 138.497 169.578 136.654 169.189 C 135.124 168.866 133.685 167.972 132.997 166.822 C 132.284 165.632 132.259 163.25 132.566 162.089 C 132.629 161.85 132.714 161.635 132.818 161.439 C 132.048 158.222 131.851 152.519 132.136 150.471 C 132.329 149.086 133.212 149.084 133.427 147.889 C 133.738 146.155 132.327 143.753 132.997 140.574 C 134.039 135.627 139.064 125.465 142.033 120.351 C 143.708 117.465 145.607 114.754 147.198 112.985 C 146.654 111.674 146.931 109.731 147.196 108.733 C 147.436 107.83 147.798 107.261 148.702 106.797 C 150.073 106.093 153.168 106.019 155.587 105.936 C 158.171 105.847 161.353 106.649 163.762 106.366 C 165.869 106.119 167.616 104.599 169.356 104.645 Z" style="fill: rgb(166, 209, 48); stroke-width: 2px; stroke: rgb(80, 55, 37); paint-order: fill;"/>
  <path stroke-width="0" d="M 248.96 120.996 C 252.295 120.4 258.136 121.34 261.439 122.287 C 264.058 123.038 266.57 123.818 267.678 125.514 C 268.779 127.198 268.662 130.647 268.108 132.399 C 267.651 133.845 266.399 134.67 265.312 135.626 C 264.186 136.615 263.199 137.533 261.439 138.208 C 259.065 139.119 253.069 139.269 251.757 139.929 C 251.216 140.201 251.594 140.506 251.112 140.79 C 250.111 141.378 246.644 142.816 244.657 142.511 C 242.706 142.211 240.299 140.915 239.279 139.068 C 238.095 136.926 238.164 132.356 238.849 129.817 C 239.443 127.613 240.88 125.891 242.506 124.439 C 244.21 122.917 246.273 121.477 248.96 120.996 Z" style="stroke-width: 2px; paint-order: fill; fill: rgb(38, 69, 159); stroke: rgb(138, 176, 92);"/>
</svg>